<svg width="22" height="22" viewBox="0 0 22 22" fill="none" xmlns="http://www.w3.org/2000/svg">
<path d="M10 19H3C2.46957 19 1.96086 18.7893 1.58579 18.4142C1.21071 18.0391 1 17.5304 1 17V5C1 4.46957 1.21071 3.96086 1.58579 3.58579C1.96086 3.21071 2.46957 3 3 3H15C15.5304 3 16.0391 3.21071 16.4142 3.58579C16.7893 3.96086 17 4.46957 17 5V11.5M13 1V5M5 1V5M1 9H17" stroke="#EF4444" stroke-width="2" stroke-linecap="round" stroke-linejoin="round"/>
<path d="M16.25 11C15.2116 11 14.1966 11.3079 13.3333 11.8848C12.4699 12.4617 11.797 13.2816 11.3996 14.2409C11.0023 15.2002 10.8983 16.2558 11.1009 17.2742C11.3035 18.2926 11.8035 19.2281 12.5377 19.9623C13.2719 20.6965 14.2074 21.1965 15.2258 21.3991C16.2442 21.6017 17.2998 21.4977 18.2591 21.1004C19.2184 20.703 20.0383 20.0301 20.6152 19.1667C21.1921 18.3034 21.5 17.2884 21.5 16.25C21.4985 14.8581 20.9449 13.5236 19.9607 12.5393C18.9764 11.5551 17.6419 11.0015 16.25 11ZM18.1511 17.5797C18.1886 17.6172 18.2184 17.6617 18.2387 17.7108C18.259 17.7598 18.2695 17.8123 18.2695 17.8654C18.2695 17.9184 18.259 17.971 18.2387 18.02C18.2184 18.069 18.1886 18.1136 18.1511 18.1511C18.1136 18.1886 18.069 18.2184 18.02 18.2387C17.971 18.259 17.9184 18.2695 17.8654 18.2695C17.8123 18.2695 17.7598 18.259 17.7108 18.2387C17.6617 18.2184 17.6172 18.1886 17.5797 18.1511L16.25 16.8209L14.9203 18.1511C14.8828 18.1886 14.8383 18.2184 14.7892 18.2387C14.7402 18.259 14.6877 18.2695 14.6346 18.2695C14.5816 18.2695 14.529 18.259 14.48 18.2387C14.431 18.2184 14.3864 18.1886 14.3489 18.1511C14.3114 18.1136 14.2816 18.069 14.2613 18.02C14.241 17.971 14.2305 17.9184 14.2305 17.8654C14.2305 17.8123 14.241 17.7598 14.2613 17.7108C14.2816 17.6617 14.3114 17.6172 14.3489 17.5797L15.6791 16.25L14.3489 14.9203C14.2731 14.8446 14.2305 14.7418 14.2305 14.6346C14.2305 14.5274 14.2731 14.4247 14.3489 14.3489C14.4247 14.2731 14.5275 14.2305 14.6346 14.2305C14.7418 14.2305 14.8446 14.2731 14.9203 14.3489L16.25 15.6791L17.5797 14.3489C17.6172 14.3114 17.6617 14.2816 17.7108 14.2613C17.7598 14.241 17.8123 14.2305 17.8654 14.2305C17.9184 14.2305 17.971 14.241 18.02 14.2613C18.069 14.2816 18.1136 14.3114 18.1511 14.3489C18.1886 14.3864 18.2184 14.431 18.2387 14.48C18.259 14.529 18.2695 14.5816 18.2695 14.6346C18.2695 14.6877 18.259 14.7402 18.2387 14.7892C18.2184 14.8383 18.1886 14.8828 18.1511 14.9203L16.8209 16.25L18.1511 17.5797Z" fill="#EF4444"/>
</svg>
