<svg width="23" height="23" viewBox="0 0 23 23" fill="none" xmlns="http://www.w3.org/2000/svg">
<path d="M10 19H3C2.46957 19 1.96086 18.7893 1.58579 18.4142C1.21071 18.0391 1 17.5304 1 17V5C1 4.46957 1.21071 3.96086 1.58579 3.58579C1.96086 3.21071 2.46957 3 3 3H15C15.5304 3 16.0391 3.21071 16.4142 3.58579C16.7893 3.96086 17 4.46957 17 5V11.5M13 1V5M5 1V5M1 9H17" stroke="#16A34A" stroke-width="2" stroke-linecap="round" stroke-linejoin="round"/>
<path fill-rule="evenodd" clip-rule="evenodd" d="M16 21.25C16.6894 21.25 17.3721 21.1142 18.0091 20.8504C18.646 20.5865 19.2248 20.1998 19.7123 19.7123C20.1998 19.2248 20.5865 18.646 20.8504 18.0091C21.1142 17.3721 21.25 16.6894 21.25 16C21.25 15.3106 21.1142 14.6279 20.8504 13.9909C20.5865 13.354 20.1998 12.7752 19.7123 12.2877C19.2248 11.8002 18.646 11.4135 18.0091 11.1496C17.3721 10.8858 16.6894 10.75 16 10.75C14.6076 10.75 13.2723 11.3031 12.2877 12.2877C11.3031 13.2723 10.75 14.6076 10.75 16C10.75 17.3924 11.3031 18.7277 12.2877 19.7123C13.2723 20.6969 14.6076 21.25 16 21.25ZM15.8647 18.1233L18.7813 14.6233L17.8853 13.8767L15.377 16.8861L14.0791 15.5876L13.2543 16.4124L15.0042 18.1624L15.4558 18.6139L15.8647 18.1233Z" fill="#16A34A"/>
</svg>
