<svg width="14" height="15" viewBox="0 0 14 15" fill="none" xmlns="http://www.w3.org/2000/svg">
<path d="M4.025 0.525C4.025 0.385761 3.96969 0.252226 3.87123 0.153769C3.77277 0.0553124 3.63924 0 3.5 0C3.36076 0 3.22722 0.0553124 3.12877 0.153769C3.03031 0.252226 2.975 0.385761 2.975 0.525V1.631C1.967 1.7115 1.3062 1.9089 0.820398 2.3954C0.333898 2.8812 0.136498 3.5427 0.0552979 4.55H13.9447C13.8635 3.542 13.6661 2.8812 13.1796 2.3954C12.6938 1.9089 12.0323 1.7115 11.025 1.6303V0.525C11.025 0.385761 10.9697 0.252226 10.8712 0.153769C10.7728 0.0553124 10.6392 0 10.5 0C10.3608 0 10.2272 0.0553124 10.1288 0.153769C10.0303 0.252226 9.975 0.385761 9.975 0.525V1.5841C9.5095 1.575 8.9873 1.575 8.4 1.575H5.6C5.0127 1.575 4.4905 1.575 4.025 1.5841V0.525Z" fill="#3F64ED"/>
<path fill-rule="evenodd" clip-rule="evenodd" d="M0 7.17498C0 6.58768 7.82311e-09 6.06548 0.00910001 5.59998H13.9909C14 6.06548 14 6.58768 14 7.17498V8.57498C14 11.2147 14 12.5349 13.1796 13.3546C12.3599 14.175 11.0397 14.175 8.4 14.175H5.6C2.9603 14.175 1.6401 14.175 0.8204 13.3546C-8.34465e-08 12.5349 0 11.2147 0 8.57498V7.17498ZM10.5 8.57498C10.6857 8.57498 10.8637 8.50123 10.995 8.36995C11.1263 8.23867 11.2 8.06063 11.2 7.87498C11.2 7.68932 11.1263 7.51128 10.995 7.38C10.8637 7.24873 10.6857 7.17498 10.5 7.17498C10.3143 7.17498 10.1363 7.24873 10.005 7.38C9.87375 7.51128 9.8 7.68932 9.8 7.87498C9.8 8.06063 9.87375 8.23867 10.005 8.36995C10.1363 8.50123 10.3143 8.57498 10.5 8.57498ZM10.5 11.375C10.6857 11.375 10.8637 11.3012 10.995 11.17C11.1263 11.0387 11.2 10.8606 11.2 10.675C11.2 10.4893 11.1263 10.3113 10.995 10.18C10.8637 10.0487 10.6857 9.97498 10.5 9.97498C10.3143 9.97498 10.1363 10.0487 10.005 10.18C9.87375 10.3113 9.8 10.4893 9.8 10.675C9.8 10.8606 9.87375 11.0387 10.005 11.17C10.1363 11.3012 10.3143 11.375 10.5 11.375ZM7.7 7.87498C7.7 8.06063 7.62625 8.23867 7.49497 8.36995C7.3637 8.50123 7.18565 8.57498 7 8.57498C6.81435 8.57498 6.6363 8.50123 6.50503 8.36995C6.37375 8.23867 6.3 8.06063 6.3 7.87498C6.3 7.68932 6.37375 7.51128 6.50503 7.38C6.6363 7.24873 6.81435 7.17498 7 7.17498C7.18565 7.17498 7.3637 7.24873 7.49497 7.38C7.62625 7.51128 7.7 7.68932 7.7 7.87498ZM7.7 10.675C7.7 10.8606 7.62625 11.0387 7.49497 11.17C7.3637 11.3012 7.18565 11.375 7 11.375C6.81435 11.375 6.6363 11.3012 6.50503 11.17C6.37375 11.0387 6.3 10.8606 6.3 10.675C6.3 10.4893 6.37375 10.3113 6.50503 10.18C6.6363 10.0487 6.81435 9.97498 7 9.97498C7.18565 9.97498 7.3637 10.0487 7.49497 10.18C7.62625 10.3113 7.7 10.4893 7.7 10.675ZM3.5 8.57498C3.68565 8.57498 3.8637 8.50123 3.99497 8.36995C4.12625 8.23867 4.2 8.06063 4.2 7.87498C4.2 7.68932 4.12625 7.51128 3.99497 7.38C3.8637 7.24873 3.68565 7.17498 3.5 7.17498C3.31435 7.17498 3.1363 7.24873 3.00503 7.38C2.87375 7.51128 2.8 7.68932 2.8 7.87498C2.8 8.06063 2.87375 8.23867 3.00503 8.36995C3.1363 8.50123 3.31435 8.57498 3.5 8.57498ZM3.5 11.375C3.68565 11.375 3.8637 11.3012 3.99497 11.17C4.12625 11.0387 4.2 10.8606 4.2 10.675C4.2 10.4893 4.12625 10.3113 3.99497 10.18C3.8637 10.0487 3.68565 9.97498 3.5 9.97498C3.31435 9.97498 3.1363 10.0487 3.00503 10.18C2.87375 10.3113 2.8 10.4893 2.8 10.675C2.8 10.8606 2.87375 11.0387 3.00503 11.17C3.1363 11.3012 3.31435 11.375 3.5 11.375Z" fill="#3F64ED"/>
</svg>
