<svg width="24" height="24" viewBox="0 0 24 24" fill="none" xmlns="http://www.w3.org/2000/svg">
<path d="M13.828 12L10.293 15.536C10.1108 15.7246 10.01 15.9772 10.0123 16.2394C10.0146 16.5016 10.1198 16.7524 10.3052 16.9378C10.4906 17.1232 10.7414 17.2284 11.0036 17.2307C11.2658 17.233 11.5184 17.1322 11.707 16.95L15.95 12.707C16.1375 12.5195 16.2428 12.2652 16.2428 12C16.2428 11.7348 16.1375 11.4805 15.95 11.293L11.707 7.05C11.5184 6.86784 11.2658 6.76705 11.0036 6.76933C10.7414 6.7716 10.4906 6.87677 10.3052 7.06218C10.1198 7.24759 10.0146 7.4984 10.0123 7.7606C10.01 8.0228 10.1108 8.2754 10.293 8.464L13.828 12ZM6 2H18C19.0609 2 20.0783 2.42143 20.8284 3.17157C21.5786 3.92172 22 4.93913 22 6V18C22 19.0609 21.5786 20.0783 20.8284 20.8284C20.0783 21.5786 19.0609 22 18 22H6C4.93913 22 3.92172 21.5786 3.17157 20.8284C2.42143 20.0783 2 19.0609 2 18V6C2 4.93913 2.42143 3.92172 3.17157 3.17157C3.92172 2.42143 4.93913 2 6 2Z" fill="black"/>
</svg>
