<svg width="60" height="60" viewBox="0 0 60 60" fill="none" xmlns="http://www.w3.org/2000/svg">
<g clip-path="url(#clip0_78_391)">
<path d="M30 10C26.0444 10 22.1776 11.173 18.8886 13.3706C15.5996 15.5682 13.0362 18.6918 11.5224 22.3463C10.0087 26.0009 9.6126 30.0222 10.3843 33.9018C11.156 37.7814 13.0608 41.3451 15.8579 44.1421C18.6549 46.9392 22.2186 48.844 26.0982 49.6157C29.9778 50.3874 33.9992 49.9913 37.6537 48.4776C41.3082 46.9638 44.4318 44.4004 46.6294 41.1114C48.827 37.8224 50 33.9556 50 30C50 24.6957 47.8929 19.6086 44.1421 15.8579C40.3914 12.1071 35.3043 10 30 10ZM27.5167 20C27.5167 19.337 27.7801 18.7011 28.2489 18.2322C28.7177 17.7634 29.3536 17.5 30.0167 17.5C30.6797 17.5 31.3156 17.7634 31.7844 18.2322C32.2533 18.7011 32.5167 19.337 32.5167 20V31.4833C32.5167 31.8116 32.452 32.1367 32.3264 32.44C32.2007 32.7434 32.0166 33.019 31.7844 33.2511C31.5523 33.4832 31.2767 33.6674 30.9734 33.793C30.6701 33.9187 30.345 33.9833 30.0167 33.9833C29.6884 33.9833 29.3633 33.9187 29.06 33.793C28.7567 33.6674 28.4811 33.4832 28.2489 33.2511C28.0168 33.019 27.8326 32.7434 27.707 32.44C27.5813 32.1367 27.5167 31.8116 27.5167 31.4833V20ZM30 42.5C29.433 42.5 28.8788 42.3319 28.4074 42.0169C27.936 41.7019 27.5685 41.2542 27.3516 40.7304C27.1346 40.2065 27.0778 39.6302 27.1884 39.0741C27.299 38.518 27.5721 38.0072 27.973 37.6063C28.3739 37.2054 28.8847 36.9324 29.4408 36.8218C29.9968 36.7111 30.5732 36.7679 31.097 36.9849C31.6208 37.2019 32.0686 37.5693 32.3836 38.0407C32.6986 38.5121 32.8667 39.0664 32.8667 39.6333C32.8667 40.3936 32.5647 41.1228 32.027 41.6604C31.4894 42.198 30.7603 42.5 30 42.5Z" fill="#EF4444"/>
</g>
<defs>
<clipPath id="clip0_78_391">
<rect width="60" height="60" fill="white"/>
</clipPath>
</defs>
</svg>
